<?xml version="1.0" encoding="UTF-8" standalone="no"?>
<!-- Created with Inkscape (http://www.inkscape.org/) -->

<svg
   xmlns:dc="http://purl.org/dc/elements/1.1/"
   xmlns:cc="http://creativecommons.org/ns#"
   xmlns:rdf="http://www.w3.org/1999/02/22-rdf-syntax-ns#"
   xmlns:svg="http://www.w3.org/2000/svg"
   xmlns="http://www.w3.org/2000/svg"
   xmlns:xlink="http://www.w3.org/1999/xlink"
   xmlns:sodipodi="http://sodipodi.sourceforge.net/DTD/sodipodi-0.dtd"
   xmlns:inkscape="http://www.inkscape.org/namespaces/inkscape"
   version="1.1"
   width="134.79858"
   height="134.39081"
   viewBox="0 0 134.79859 134.3908"
   id="Layer_1"
   style="overflow:visible"
   inkscape:version="0.47 r22583"
   sodipodi:docname="add.svg">
  <sodipodi:namedview
     pagecolor="#ffffff"
     bordercolor="#666666"
     borderopacity="1"
     objecttolerance="10"
     gridtolerance="10"
     guidetolerance="10"
     inkscape:pageopacity="0"
     inkscape:pageshadow="2"
     inkscape:window-width="640"
     inkscape:window-height="504"
     id="namedview24"
     showgrid="false"
     inkscape:zoom="1.7560725"
     inkscape:cx="94.244009"
     inkscape:cy="96.235307"
     inkscape:window-x="0"
     inkscape:window-y="24"
     inkscape:window-maximized="0"
     inkscape:current-layer="Layer_1" />
  <metadata
     id="metadata3">
    <rdf:RDF>
      <cc:Work
         rdf:about="">
        <dc:title />
        <dc:description />
        <dc:subject>
          <rdf:Bag>
            <rdf:li>unsorted</rdf:li>
          </rdf:Bag>
        </dc:subject>
        <dc:publisher>
          <cc:Agent
             rdf:about="http://www.openclipart.org/">
            <dc:title>Open Clip Art Library</dc:title>
          </cc:Agent>
        </dc:publisher>
        <dc:creator>
          <cc:Agent>
            <dc:title>Architetto Francesco Rollandin</dc:title>
          </cc:Agent>
        </dc:creator>
        <dc:rights>
          <cc:Agent>
            <dc:title>Architetto Francesco Rollandin</dc:title>
          </cc:Agent>
        </dc:rights>
        <dc:date />
        <dc:format>image/svg+xml</dc:format>
        <dc:type
           rdf:resource="http://purl.org/dc/dcmitype/StillImage" />
        <cc:license
           rdf:resource="http://web.resource.org/cc/PublicDomain" />
        <dc:language>en</dc:language>
      </cc:Work>
      <cc:License
         rdf:about="http://web.resource.org/cc/PublicDomain">
        <cc:permits
           rdf:resource="http://web.resource.org/cc/Reproduction" />
        <cc:permits
           rdf:resource="http://web.resource.org/cc/Distribution" />
        <cc:permits
           rdf:resource="http://web.resource.org/cc/DerivativeWorks" />
      </cc:License>
    </rdf:RDF>
  </metadata>
  <defs
     id="defs39">
    <inkscape:perspective
       sodipodi:type="inkscape:persp3d"
       inkscape:vp_x="0 : 67.195404 : 1"
       inkscape:vp_y="0 : 1000 : 0"
       inkscape:vp_z="134.79858 : 67.195404 : 1"
       inkscape:persp3d-origin="67.399292 : 44.796936 : 1"
       id="perspective26" />
    <radialGradient
       cx="52.408199"
       cy="36.194801"
       r="105.1645"
       id="XMLID_2_"
       gradientUnits="userSpaceOnUse">
      <stop
         id="stop8"
         style="stop-color:#d1f593;stop-opacity:1"
         offset="0" />
      <stop
         id="stop10"
         style="stop-color:#81ce09;stop-opacity:1"
         offset="1" />
    </radialGradient>
    <radialGradient
       cx="52.408199"
       cy="36.194801"
       r="105.1645"
       id="radialGradient3016"
       xlink:href="#XMLID_2_"
       gradientUnits="userSpaceOnUse"
       gradientTransform="matrix(0.96593585,0,0,0.96593585,1.4801253,1.4912916)" />
    <radialGradient
       inkscape:collect="always"
       xlink:href="#XMLID_2_"
       id="radialGradient2832"
       gradientUnits="userSpaceOnUse"
       gradientTransform="matrix(0.96593585,0,0,0.96593585,1.7648513,2.3523865)"
       cx="52.408199"
       cy="36.194801"
       r="105.1645" />
  </defs>
  <path
     d="m 51.729075,128.80744 c 0,2.51626 27.679858,1.33492 30.525505,0.78917 4.721494,-0.90315 -8.773596,-3.01566 -9.922093,-3.06782 -1.843972,-0.0821 -20.60631,-0.8732 -20.603412,2.27865"
     id="path5"
     style="fill:#67ba06" />
  <path
     d="m 87.500354,124.67368 c 0,-7.81538 0,-15.6327 0,-23.44713 0,-3.898522 0,-7.796073 0,-11.692658 0,-2.26995 1.30691,-1.431517 3.4764,-1.431517 9.592696,0 19.187336,0 28.781986,-0.0019 2.95479,0 6.19164,0.385408 8.77939,-1.361004 3.99028,-2.695927 3.516,-7.196222 3.516,-11.364235 0,-6.442792 2.86014,-21.4998 -3.5189,-25.80884 -5.57442,-3.765218 -17.83794,-1.362936 -24.0518,-1.362936 -2.83309,0 -16.980176,1.732889 -16.980176,-1.432483 0,-9.297132 0,-18.593299 -0.002,-27.889465 0,-7.677258 -0.0222,-15.2308758 -9.99647,-15.2308758 -4.57951,0 -9.15901,0 -13.74141,0 -3.39333,0 -8.04817,-0.7428046 -11.28599,0.6278583 -7.45799,3.1547465 -4.87508,16.7358035 -4.87508,23.0346715 0,1.653682 0.26273,20.890294 -0.24052,20.890294 -8.55722,0 -17.11348,0 -25.670709,0 -6.788598,0 -18.6435287,-1.873915 -18.6415967,8.328299 0,7.83374 9.66e-4,15.668446 9.66e-4,23.502186 0,10.270795 13.2014457,8.069428 19.8577097,8.069428 2.001419,0 24.69415,-0.257905 24.69415,0.241484 0,9.694132 9.7e-4,19.387303 9.7e-4,29.080473 0,3.13736 -0.63656,7.36623 0.62592,10.3558 2.2062,5.22088 7.43385,4.87411 12.09932,4.87411 7.11025,-0.002 27.1766,3.60294 27.17177,-7.98153"
     id="path12"
     style="fill:url(#radialGradient2832)" />
  <path
     d="m 52.213975,83.100314 c 2.571321,0.0029 1.29049,39.844856 0.777578,43.518316 -0.342907,2.44285 -1.242193,2.1946 -1.758969,-0.0493 -1.179408,-5.12042 -1.223841,-10.6166 -1.342651,-15.84135 -0.04926,-2.12216 -0.761157,-27.630594 2.324042,-27.627696"
     id="path18"
     style="fill:#67ba06" />
  <path
     d="m 83.386657,84.364724 c -1.881643,-0.0048 -1.213216,22.319886 -1.213216,24.258516 0,5.5522 -0.257905,11.20872 0.315861,16.7416 0.316827,3.06685 1.416062,3.346 2.097047,0.20381 0.678087,-3.11804 3.450323,-41.214552 -1.199692,-41.203926"
     id="path30"
     style="fill:#67ba06" />
  <path
     d="m 85.516545,82.406772 c -0.0019,-1.90386 21.462125,-1.218045 23.306095,-1.218045 5.55123,0 11.20775,-0.254041 16.7416,0.318758 3.06492,0.316827 3.34697,1.415097 0.20478,2.098013 -3.12674,0.679053 -40.252475,3.52953 -40.252475,-1.198726"
     id="path34"
     style="fill:#67ba06" />
</svg>
